<?xml version="1.0" encoding="utf-8"?>
<!-- Generator: Adobe Illustrator 23.0.0, SVG Export Plug-In . SVG Version: 6.00 Build 0)  -->
<svg version="1.1" id="Layer_1" xmlns="http://www.w3.org/2000/svg" xmlns:xlink="http://www.w3.org/1999/xlink" x="0px" y="0px"
	 viewBox="0 0 952.6 952.6" style="enable-background:new 0 0 952.6 952.6;" xml:space="preserve">
<style type="text/css">
	.st0{fill:none;stroke:#232323;stroke-width:33;stroke-linecap:round;stroke-linejoin:round;stroke-miterlimit:10;}
	.st1{fill:#232323;stroke:#232323;stroke-width:33;stroke-linecap:round;stroke-linejoin:round;stroke-miterlimit:10;}
</style>
<g>
	<g>
		<path class="st0" d="M580.9,581.4c7-42.8-13.7-86.5-51-108.3c-37.6-22-82.3-8.7-118.2-36.5c-34.9-27-49.7-74-36.1-116.2
			c4.4-13.5,6.6-12.7,20.5-10.7c11,1.6,21.7,4.9,31.6,9.9c21.2,10.6,38.6,28.3,48.8,49.8c21.8-46,75.1-70.5,124.2-57
			c46.6,12.8,76.4,55,78,102.4C680.9,482.8,631.5,541.7,580.9,581.4z"/>
		<path class="st1" d="M582.2,564.5c0,16.2-5.4,20.3-18,29.2c-13.3,9.5-27.2,18.2-41.4,26.3c-12.3,7.1-29.1,20.1-43.1,22.4
			c-13.6,2.2-34.4-13.5-47.1-20.7c-44.3-25-86.7-56.1-118-96.8c-24.3-31.6-42.2-69.8-40.7-110.3c2.1-57.7,46.4-106.2,105.9-106.3
			c-28.5,61.5,10,135.5,76.2,148.2c32.3,6.2,59.6,3.4,87,25.7C567.6,502.3,582.2,532.9,582.2,564.5z"/>
	</g>
</g>
</svg>
