<svg xmlns="http://www.w3.org/2000/svg" width="28" height="28" viewBox="0 0 28 28"><path id="Information_icon" fill="#fff" d="M14,28A14,14,0,0,1,4.1,4.1,14,14,0,1,1,23.9,23.9,13.909,13.909,0,0,1,14,28Zm-.584-16h0l-1.088,5.136a5.248,5.248,0,0,0-.128,1.04c0,1.22.624,1.92,1.712,1.92a1.68,1.68,0,0,0,1.76-1.648,1.048,1.048,0,0,1-.512.1c-.472,0-.656-.166-.656-.592a2.247,2.247,0,0,1,.064-.512L15.719,12ZM15,8.591a1.273,1.273,0,0,0-1.264,1.28A1.251,1.251,0,0,0,15,11.136a1.272,1.272,0,1,0,0-2.544Z" data-name="Information icon"/></svg>