<svg xmlns="http://www.w3.org/2000/svg" xmlns:xlink="http://www.w3.org/1999/xlink" id="Layer_1" x="0" y="0" version="1.1" viewBox="0 0 28 28" xml:space="preserve" style="enable-background:new 0 0 28 28"><style type="text/css">.st0{fill:#232323}</style><path id="Information_icon" d="M14,28C6.3,28,0,21.7,0,14c0-3.7,1.5-7.3,4.1-9.9c5.5-5.5,14.3-5.5,19.8,0	s5.5,14.3,0,19.8C21.3,26.5,17.7,28,14,28z M13.4,12L13.4,12l-1.1,5.1c-0.1,0.3-0.1,0.7-0.1,1c0,1.2,0.6,1.9,1.7,1.9	c0.9,0,1.7-0.7,1.8-1.6c0,0,0,0,0-0.1c-0.2,0.1-0.3,0.1-0.5,0.1c-0.5,0-0.7-0.2-0.7-0.6c0-0.2,0-0.3,0.1-0.5l1.2-5.4H13.4z M15,8.6	c-0.7,0-1.3,0.6-1.3,1.3c0,0.7,0.5,1.3,1.2,1.3c0,0,0,0,0,0c0.7,0,1.3-0.6,1.3-1.3C16.3,9.2,15.7,8.6,15,8.6C15,8.6,15,8.6,15,8.6	L15,8.6z" class="st0"/></svg>