<svg xmlns="http://www.w3.org/2000/svg" xmlns:xlink="http://www.w3.org/1999/xlink" id="Layer_1" x="0" y="0" version="1.1" viewBox="0 0 952.6 952.6" xml:space="preserve" style="enable-background:new 0 0 952.6 952.6"><style type="text/css">.st0{fill:#232323}</style><path d="M672.8,421.6c-6.2-41.7-66.7-64.8-82.9-70.3l0,0c-6.9-13.7-21.3-30.9-50.9-29.7c-4.6,0.2-8.8,1-12.3,2.1l0,0	c-28.8-18.6-62.3-23.9-97.2-15.5c-22,5.4-38.2,14.5-44,18.1l0,0c-19.7,1.4-33.1,10.1-38.4,14.2l0,0c-8.6,0.1-27.8,15.3-28,15.4	c-10.1,8-22.9,20.6-25.9,34.7c-0.4,1.7-0.6,3.2-1,4.8l0,0c-15,5.7-32.1,33.2-32.8,62.9c-0.7,26.6,19.3,46.9,28.1,54.7l0,0	c-0.1,2.5,0,5,0.2,7.5c2.5,19.9,18.2,38.6,41.1,48.7c9.1,4.1,17.8,6.6,26.1,7.7l0,0c-0.5,1.5-1.1,3.1-1.5,4.6	c-10.1,30.4-15.3,45.6-9.1,56.7c2.7,4.8,7.3,8,13.6,9.4c0.8,0.2,1.7,0.4,2.4,0.4c4.4,0,7.7-3.3,15.3-11.2	c12.6-13,39.1-40.2,63.7-45.5c6.3-1.3,15.5-9.8,27.4-25.1l0,0c16.8,6.9,37.9,11.3,58.1,11.4c0.1,0,0.2,0,0.4,0	c27.3,0,45.9-21.1,54-32.6l0,0c1.7,0.7,3.1,1.2,3.9,1.5c0.1,0,0.4,0.1,0.5,0.1c11.9,3.5,22,4.9,30.9,4.9c24.2,0,38.2-10.6,49.3-19.1	c0.8-0.6,1.7-1.2,2.5-1.8c14.8-11,23.5-25,25.9-41.7C696.7,458.9,678.3,429.6,672.8,421.6L672.8,421.6z M277.2,458.8	c0.5-17.6,7.6-31.9,13.8-39.9h0.1c1.9,25.9,13.9,41.9,14.5,42.8c3,3.9,8.6,4.6,12.5,1.8c3.9-3,4.8-8.6,1.8-12.5	c-0.7-1-16.7-23-9.4-56.6c3.3-15.4,31.2-33.6,37.7-36l0,0c0.7,0,1.4-0.1,2.3-0.2c3.3-0.5,8.5-1.1,11.4,1.4c2.5,2,4.2,6.6,4.6,12.9	c1,11.9-3.6,19.7-8.7,28.6c-5.7,9.9-12.2,21.1-11.1,38c0.7,12.2,2.1,22.3,4.3,30.9l0,0c-11.3-3.7-27.8-3.8-46.3,10.7	c-4.8,3.8-8.7,8.2-11.6,13c0,0,0,0-0.1,0C285.9,486,276.8,473.3,277.2,458.8z M525.4,560c-0.1,0-0.1,0-0.2,0	c-32.2-0.2-62.3-11.9-72-22.8c-3-3.3-7.9-4.3-11.7-1.9c-4.8,3-5.6,9.4-2,13.5c2.9,3.2,6.6,6.4,11.1,9.3c0,0,0,0,0,0.1	c-6.4,7.9-12.9,14.7-15.4,16.1l0,0c-29.9,6.7-57.4,35-72.3,50.4c-1.1,1.1-2.1,2.1-3.1,3.2h-0.1c-0.1-1.5,0.1-4.2,1.1-8.5	c1.7-7.7,5.2-18.5,9.8-31.9c1.1-3.2,2.1-6.6,3.3-10.1l0,0c6.1-1,11.7-2.9,16.4-5.7c9.5-5.8,15.1-15.1,15.7-26.1	c1.7-28.5-51.5-35.5-62.2-36.6c-5-0.5-9.4,3.2-9.9,8.2c-0.4,4.9,3.6,9.1,8.5,9.7c21.2,2.3,46.1,10.7,45.8,17.8	c-0.2,5.1-2.7,9.1-7.3,11.9c-9.9,6.1-26.7,4.9-44.9-3.2c-17.2-7.6-29-20.9-30.6-34.6c-1.2-9.3,2.4-17.4,10.4-23.6	c21.9-17.2,36-4.4,36.1-4.4c4.5,4.5,47.8,31.2,73.9,34.9c13.5,1.9,31.5-0.4,47.1-5.2l0,0c12.9,16,39.4,25.6,42.8,26.7	c1,0.4,1.9,0.5,3,0.5c3.7,0,7.1-2.3,8.5-6c1.7-4.6-0.8-9.8-5.5-11.3c-6.2-2.1-21.9-8.9-31.1-17.2c0,0,0,0,0-0.1	c6.8-3.8,12-8.2,14.7-13.1c2.1-3.9,1-9.4-2.6-11.9c-4.6-3.1-10.7-1.4-13.1,3.3c-1.2,2.4-8.5,7.9-23.1,12.3c-13.5,4.1-28,5.7-38,4.3	c-14.1-2-36.1-13.1-50.4-21.4l0,0c-7.6-9.5-11.7-24.1-13.2-48.1c-0.7-11.6,3.6-19.2,8.7-28c5.7-10,12.3-21.4,11-38.8	c-0.8-11-4.2-19.2-10.1-24.5v-0.1c7.4-2.3,17-3.5,28.4-1.3c15.5,2.9,21.7,14.5,20.1,37.8c-0.1,1.2-0.1,2-0.1,2.7	c0,3,2.3,22.3,9.8,36.1l0,0c-31.2,18-31.3,46.1-31.3,47.4c0.1,4.9,4.1,8.8,8.9,8.8h0.1c4.9-0.1,8.9-4.1,8.8-9.1	c0-1,0.6-21.3,26.2-34l0,0c8.7,5.2,21.1,9.2,34.4,9.2c3.5,0,6.9-0.2,10.4-0.8l0,0c5.6,16.2,15.5,30.9,29.1,43.1	c10.5,9.4,21,15.5,27.6,18.8l0,0c-0.1,2.6-0.1,5.4,0.2,8.3c1.2,9.8,8.5,17.3,16.2,22.8l0,0C556.7,545.7,543.3,560,525.4,560z M674.7,486.7c-1.7,11.9-7.9,21.7-18.8,29.9c-0.8,0.6-1.7,1.3-2.5,1.9c-14.1,10.6-28.7,21.7-64.2,11.3l0,0c-2.6-1-5.5-2.3-8.3-3.7	c-0.1-0.1-0.2-0.1-0.4-0.2c-0.1-0.1-0.4-0.1-0.5-0.2c-7.4-4.1-14.3-9.4-14.8-13.9c-0.7-5.4,0-8.8,1.9-10.5c1.9-1.5,10.2-6,40,3.1	c18.7,5.7,37.8-9.7,39.9-11.4c3.8-3.1,4.3-8.8,1.2-12.5c-3.1-3.8-8.8-4.3-12.6-1.2c-3.5,2.9-15.3,10.5-23.4,8.1	c-28.2-8.6-46.3-8.5-56.8,0.4c-0.5,0.5-1.1,1-1.5,1.4l0,0c-5.7-2.9-14.4-8.1-23.1-16c-18.7-17.2-28.4-38.6-28.5-63.7	c0-4.9-3.7-9.2-8.7-9.3c-5.1-0.1-9.2,3.9-9.2,8.9c0,5.8,0.5,11.7,1.3,17.3l0,0c-13.3,1.7-26.9-2.5-34.1-8.1	c-6.4-5-11.2-26.8-11.2-32.3c0-0.4,0-1,0.1-1.5c2.1-32.4-10.1-46.8-23.8-53.1v-0.1c5.1-2,11-3.8,17.4-5.4	c27.8-6.6,53.4-3.3,76.6,9.5c0,0,0,0,0,0.1c-2.4,3.1-4.1,6.6-5.4,10l0,0c-17.9-6.4-42.9-5.5-46.3-5.4c-4.9,0.2-8.7,4.4-8.5,9.3	s4.4,8.8,9.3,8.5c12.7-0.6,32.6,0.8,42.3,5.4l0,0c-0.4,10.1,1.4,18.5,1.8,20c1.1,4.8,6,7.9,10.7,6.7c4.8-1.1,7.9-6,6.7-10.7	c-1.3-5.7-3.5-24.1,3.7-33.4c3.1-4.1,7.9-6.2,14.5-6.4c21.2-0.8,30.9,11.9,35.3,21.7c0.2,0.6,0.5,1.2,0.7,1.8c1.4,3.6,2,6.4,2.3,7.9	c1.8,9.3,29.2,43.5,36.7,48.5c1.5,1.1,3.2,1.5,5,1.5c2.9,0,5.7-1.4,7.4-3.9c2.7-4.1,1.7-9.7-2.5-12.4c-3.9-2.7-17.4-19.5-24.7-30.1	v-0.1c23.9,10.5,55.4,29.7,55.5,54.1c0.1,15-5.7,18.2-7.6,19.3c-10.4,5.8-30.7-1.1-36.8-4.8c-4.8-2.9-9.5-6.9-13.9-11.6	c-0.2-0.4-0.5-0.6-0.8-0.8c-12.5-13-23.1-29.9-26.3-36.6c-2.3-4.4-7.6-6.2-12-4.1c-4.4,2.3-6.2,7.6-4.1,12	c2.5,5,10.8,19.2,22.3,32.9v0.1c-2.4,0.7-4.9,1-7.5,0.7c-12.9-1.4-25.6-14.7-29.5-19.5c-3-3.9-8.6-4.6-12.5-1.7s-4.6,8.6-1.7,12.5	c0.7,1,18.6,23.9,41.7,26.5c1.4,0.1,2.9,0.2,4.3,0.2c6.4,0,12.6-1.7,18.3-4.9l0,0c3.9,3.6,8.1,6.9,12.4,9.5	c6.6,4.1,21.2,9.7,35.5,9.7c6.8,0,13.6-1.3,19.3-4.5c4.1-2.3,8.6-6.1,11.8-12.3h0.1C672.9,461.2,676.5,474,674.7,486.7z" class="st0"/></svg>