<svg xmlns="http://www.w3.org/2000/svg" viewBox="0 0 5201.74 1841.53"><defs><style>.a,.b,.c,.d,.e,.f,.g,.h,.i,.j,.k,.l{fill:none;stroke:#1ef9a5;stroke-miterlimit:10;stroke-width:6px;}.b{stroke-dasharray:11.84 11.84;}.c{stroke-dasharray:11.71 11.71;}.d{stroke-dasharray:12;}.e{stroke-dasharray:12.22 12.22;}.f{stroke-dasharray:11.61 11.61;}.g{stroke-dasharray:11.91 11.91;}.h{stroke-dasharray:12.28 12.28;}.i{stroke-dasharray:12 12;}.j{stroke-dasharray:11.81 11.81;}.k{stroke-dasharray:11.76 11.76;}.l{stroke-dasharray:13.43 13.43;}.ae,.m{font-size:70px;}.ac,.ad,.ae,.af,.ai,.m,.o{fill:#232323;}.ad,.ae,.af,.m,.o{font-family:Montserrat-SemiBold, Montserrat;font-weight:600;}.ae,.n{letter-spacing:-0.01em;}.o{font-size:54px;}.p{letter-spacing:-0.01em;}.q{letter-spacing:0em;}.r{letter-spacing:-0.03em;}.s{letter-spacing:0em;}.t{letter-spacing:0em;}.u{letter-spacing:0em;}.v{letter-spacing:-0.02em;}.w{letter-spacing:-0.01em;}.x{letter-spacing:-0.03em;}.y{letter-spacing:-0.01em;}.z{letter-spacing:0em;}.aa{letter-spacing:-0.03em;}.ab{letter-spacing:-0.01em;}.ad{font-size:82.06px;}.af{font-size:46px;}.ag{letter-spacing:-0.01em;}.ah{letter-spacing:0em;}.ai{font-size:74px;font-family:Montserrat-Bold, Montserrat;font-weight:700;}.aj{letter-spacing:-0.04em;}.ak{letter-spacing:-0.01em;}.al{letter-spacing:0em;}.am{letter-spacing:-0.01em;}.an{letter-spacing:-0.03em;}.ao{letter-spacing:0.01em;}.ap{letter-spacing:-0.03em;}</style></defs><title>Denah Lantai 2</title><rect class="a" x="3" y="3" width="5195.74" height="1573.53"/><rect class="a" x="1178.69" y="711.77" width="269.44" height="347.79"/><rect class="a" x="1318.13" y="740.41" width="130" height="222.66"/><line class="a" x1="1318.13" y1="944.51" x2="1448.13" y2="944.51"/><line class="a" x1="1318.13" y1="925.95" x2="1448.13" y2="925.95"/><line class="a" x1="1318.13" y1="907.4" x2="1448.13" y2="907.4"/><line class="a" x1="1318.13" y1="888.85" x2="1448.13" y2="888.85"/><line class="a" x1="1318.13" y1="870.29" x2="1448.13" y2="870.29"/><line class="a" x1="1318.13" y1="851.74" x2="1448.13" y2="851.74"/><line class="a" x1="1318.13" y1="833.18" x2="1448.13" y2="833.18"/><line class="a" x1="1318.13" y1="814.63" x2="1448.13" y2="814.63"/><line class="a" x1="1318.13" y1="796.07" x2="1448.13" y2="796.07"/><line class="a" x1="1318.13" y1="777.52" x2="1448.13" y2="777.52"/><line class="a" x1="1318.13" y1="758.96" x2="1448.13" y2="758.96"/><line class="a" x1="1383.13" y1="740.41" x2="1383.13" y2="963.06"/><line class="a" x1="1178.69" y1="944.51" x2="1308.69" y2="944.51"/><polygon class="a" points="1178.69 925.96 1178.69 963.06 1308.69 963.06 1308.69 833.18 1178.69 925.96"/><line class="a" x1="1308.69" y1="925.95" x2="1178.69" y2="925.95"/><line class="a" x1="1204.69" y1="907.4" x2="1308.69" y2="907.4"/><line class="a" x1="1230.69" y1="888.85" x2="1308.69" y2="888.85"/><line class="a" x1="1256.69" y1="870.29" x2="1308.69" y2="870.29"/><line class="a" x1="1282.69" y1="851.74" x2="1308.69" y2="851.74"/><line class="a" x1="1243.69" y1="879.57" x2="1243.69" y2="963.06"/><path class="a" d="M1390.69,1565.19" transform="translate(-150.55 -683.09)"/><rect class="a" x="3" y="3" width="531.06" height="715.4"/><rect class="a" x="3" y="718.4" width="531.06" height="858.13"/><rect class="a" x="534.06" y="888.85" width="518.3" height="687.69"/><rect class="a" x="534.06" y="3" width="518.3" height="537.7"/><rect class="a" x="1570.6" y="3" width="341.11" height="535.4"/><rect class="a" x="1911.7" y="3" width="694.79" height="535.4"/><rect class="a" x="2606.49" y="3" width="694.79" height="535.4"/><line class="a" x1="4163.11" y1="538.4" x2="4163.11" y2="277.76"/><line class="a" x1="4421.04" y1="277.76" x2="4421.04" y2="283.76"/><line class="b" x1="4421.04" y1="295.6" x2="4421.04" y2="526.48"/><polyline class="a" points="4421.04 532.4 4421.04 538.4 4415.04 538.4"/><line class="c" x1="4403.33" y1="538.4" x2="4174.96" y2="538.4"/><line class="a" x1="4169.11" y1="538.4" x2="4163.11" y2="538.4"/><rect class="a" x="4052.28" y="687.27" width="261.38" height="337.87" transform="translate(8215.38 1029.32) rotate(180)"/><rect class="a" x="3901.72" y="97.92" width="126.11" height="216.31"/><line class="a" x1="4027.84" y1="115.95" x2="3901.72" y2="115.95"/><line class="a" x1="4027.84" y1="133.98" x2="3901.72" y2="133.98"/><line class="a" x1="4027.84" y1="152" x2="3901.72" y2="152"/><line class="a" x1="4027.84" y1="170.03" x2="3901.72" y2="170.03"/><line class="a" x1="4027.84" y1="188.05" x2="3901.72" y2="188.05"/><line class="a" x1="4027.84" y1="206.08" x2="3901.72" y2="206.08"/><line class="a" x1="4027.84" y1="224.1" x2="3901.72" y2="224.1"/><line class="a" x1="4027.84" y1="242.13" x2="3901.72" y2="242.13"/><line class="a" x1="4027.84" y1="260.16" x2="3901.72" y2="260.16"/><line class="a" x1="4027.84" y1="278.18" x2="3901.72" y2="278.18"/><line class="a" x1="4027.84" y1="296.21" x2="3901.72" y2="296.21"/><line class="a" x1="3964.78" y1="314.23" x2="3964.78" y2="97.92"/><line class="a" x1="4163.11" y1="115.95" x2="4036.99" y2="115.95"/><polygon class="a" points="4163.11 133.97 4163.11 97.92 4036.99 97.92 4036.99 224.1 4163.11 133.97"/><line class="a" x1="4036.99" y1="133.98" x2="4163.11" y2="133.98"/><line class="a" x1="4137.88" y1="152" x2="4036.99" y2="152"/><line class="a" x1="4112.66" y1="170.03" x2="4036.99" y2="170.03"/><line class="a" x1="4087.44" y1="188.05" x2="4036.99" y2="188.05"/><line class="a" x1="4062.21" y1="206.08" x2="4036.99" y2="206.08"/><line class="a" x1="4100.05" y1="179.04" x2="4100.05" y2="97.92"/><path class="a" d="M4254.05,859.66" transform="translate(-150.55 -683.09)"/><polygon class="d" points="4421.04 3 4421.04 194.49 4530.57 194.49 4530.57 281.81 4680.79 281.81 4680.79 3 4421.04 3"/><polyline class="d" points="4680.79 3 4939.34 3 4939.34 281.81 4680.79 281.81"/><rect class="d" x="4529.81" y="333.13" width="409.53" height="205.28"/><line class="a" x1="4529.81" y1="538.4" x2="4421.04" y2="538.4"/><rect class="d" x="4163.11" y="3" width="257.94" height="275.18"/><line class="a" x1="4163.11" y1="538.4" x2="5198.74" y2="538.4"/><polyline class="a" points="3984.45 1016.23 3984.45 1022.23 3978.45 1022.23"/><line class="e" x1="3966.23" y1="1022.23" x2="3556.9" y2="1022.23"/><polyline class="a" points="3550.79 1022.23 3544.79 1022.23 3544.79 1016.23"/><line class="f" x1="3544.79" y1="1004.62" x2="3544.79" y2="731.74"/><polyline class="a" points="3544.79 725.94 3544.79 719.94 3550.79 719.94"/><line class="e" x1="3563.01" y1="719.94" x2="3972.34" y2="719.94"/><polyline class="a" points="3978.45 719.94 3984.45 719.94 3984.45 725.94"/><line class="f" x1="3984.45" y1="737.55" x2="3984.45" y2="1010.43"/><polyline class="a" points="3984.45 1230.7 3984.45 1236.7 3978.45 1236.7"/><line class="e" x1="3966.23" y1="1236.7" x2="3556.9" y2="1236.7"/><polyline class="a" points="3550.79 1236.7 3544.79 1236.7 3544.79 1230.7"/><line class="g" x1="3544.79" y1="1218.79" x2="3544.79" y2="1034.19"/><polyline class="a" points="3544.79 1028.23 3544.79 1022.23 3550.79 1022.23"/><line class="e" x1="3563.01" y1="1022.23" x2="3972.34" y2="1022.23"/><polyline class="a" points="3978.45 1022.23 3984.45 1022.23 3984.45 1028.23"/><line class="g" x1="3984.45" y1="1040.14" x2="3984.45" y2="1224.75"/><polyline class="a" points="4580.36 1049.94 4580.36 1055.94 4574.36 1055.94"/><line class="h" x1="4562.08" y1="1055.94" x2="4175.25" y2="1055.94"/><polyline class="a" points="4169.11 1055.94 4163.11 1055.94 4163.11 1049.94"/><line class="i" x1="4163.11" y1="1037.94" x2="4163.11" y2="899.94"/><polyline class="a" points="4163.11 893.94 4163.11 887.94 4169.11 887.94"/><line class="h" x1="4181.39" y1="887.94" x2="4568.22" y2="887.94"/><polyline class="a" points="4574.36 887.94 4580.36 887.94 4580.36 893.94"/><line class="i" x1="4580.36" y1="905.94" x2="4580.36" y2="1043.94"/><polyline class="a" points="4580.36 881.94 4580.36 887.94 4574.36 887.94"/><line class="h" x1="4562.08" y1="887.94" x2="4175.25" y2="887.94"/><polyline class="a" points="4169.11 887.94 4163.11 887.94 4163.11 881.94"/><line class="i" x1="4163.11" y1="869.94" x2="4163.11" y2="731.94"/><polyline class="a" points="4163.11 725.94 4163.11 719.94 4169.11 719.94"/><line class="h" x1="4181.39" y1="719.94" x2="4568.22" y2="719.94"/><polyline class="a" points="4574.36 719.94 4580.36 719.94 4580.36 725.94"/><line class="i" x1="4580.36" y1="737.94" x2="4580.36" y2="875.94"/><polyline class="a" points="4580.36 1309.85 4580.36 1315.85 4574.36 1315.85"/><line class="h" x1="4562.08" y1="1315.85" x2="4175.25" y2="1315.85"/><polyline class="a" points="4169.11 1315.85 4163.11 1315.85 4163.11 1309.85"/><line class="j" x1="4163.11" y1="1298.05" x2="4163.11" y2="1067.84"/><polyline class="a" points="4163.11 1061.94 4163.11 1055.94 4169.11 1055.94"/><line class="h" x1="4181.39" y1="1055.94" x2="4568.22" y2="1055.94"/><polyline class="a" points="4574.36 1055.94 4580.36 1055.94 4580.36 1061.94"/><line class="j" x1="4580.36" y1="1073.74" x2="4580.36" y2="1303.95"/><polyline class="a" points="4580.36 1569.77 4580.36 1575.77 4574.36 1575.77"/><line class="k" x1="4562.6" y1="1575.77" x2="4074.46" y2="1575.77"/><polyline class="a" points="4068.57 1575.77 4062.57 1575.77 4062.57 1569.77"/><line class="j" x1="4062.57" y1="1557.96" x2="4062.57" y2="1327.75"/><polyline class="a" points="4062.57 1321.85 4062.57 1315.85 4068.57 1315.85"/><line class="k" x1="4080.34" y1="1315.85" x2="4568.48" y2="1315.85"/><polyline class="a" points="4574.36 1315.85 4580.36 1315.85 4580.36 1321.85"/><line class="j" x1="4580.36" y1="1333.66" x2="4580.36" y2="1563.86"/><polyline class="a" points="4062.57 1569.77 4062.57 1575.77 4056.57 1575.77"/><line class="i" x1="4044.57" y1="1575.77" x2="3834.57" y2="1575.77"/><polyline class="a" points="3828.57 1575.77 3822.57 1575.77 3822.57 1569.77"/><line class="j" x1="3822.57" y1="1557.96" x2="3822.57" y2="1327.75"/><polyline class="a" points="3822.57 1321.85 3822.57 1315.85 3828.57 1315.85"/><line class="i" x1="3840.57" y1="1315.85" x2="4050.57" y2="1315.85"/><polyline class="a" points="4056.57 1315.85 4062.57 1315.85 4062.57 1321.85"/><line class="j" x1="4062.57" y1="1333.66" x2="4062.57" y2="1563.86"/><line class="a" x1="3984.45" y1="1236.7" x2="3984.45" y2="1242.7"/><line class="l" x1="3984.45" y1="1256.13" x2="3984.45" y2="1303.14"/><line class="a" x1="3984.45" y1="1309.85" x2="3984.45" y2="1315.85"/><rect class="a" x="3304.79" y="1236.7" width="240" height="339.06"/><rect class="a" x="3304.79" y="1022.23" width="240" height="214.47"/><rect class="a" x="3304.79" y="719.94" width="240" height="302.3"/><rect class="a" x="2866.66" y="719.94" width="438.13" height="169.53"/><rect class="a" x="2428.53" y="719.94" width="438.13" height="169.53"/><rect class="a" x="1990.4" y="719.94" width="438.13" height="169.53"/><rect class="a" x="1570.6" y="719.94" width="258.45" height="598.07"/><rect class="a" x="1570.6" y="1318" width="258.45" height="258.45"/><line class="a" x1="1829.04" y1="779.94" x2="1990.4" y2="779.94"/><line class="a" x1="1227.2" y1="1576.53" x2="1227.2" y2="1130.49"/><polyline class="a" points="1227.2 1130.49 1570.6 1130.49 1570.6 1576.53 1227.2 1576.53"/><polyline class="a" points="1227.2 1576.53 1052.36 1576.53 1052.36 1130.49 1227.2 1130.49"/><line class="a" x1="4559.94" y1="538.4" x2="4559.94" y2="719.94"/><line class="a" x1="4163.11" y1="719.94" x2="3984.45" y2="719.94"/><rect class="a" x="3301.28" y="3" width="600.45" height="535.4"/><rect class="a" x="3544.79" y="719.94" width="1035.57" height="855.83"/><text class="m" transform="translate(55.25 342.47)">R. <tspan class="n" x="87.57" y="0">K</tspan><tspan x="137.9" y="0">ULIAH 2</tspan></text><text class="m" transform="translate(55.25 1122.49)">R. <tspan class="n" x="87.57" y="0">K</tspan><tspan x="137.9" y="0">ULIAH 3</tspan></text><text class="m" transform="translate(639.04 191.32)">R. ARSIP</text><text class="m" transform="translate(576.53 1206.47)">R. <tspan class="n" x="87.57" y="0">K</tspan><tspan x="137.9" y="0">ULIAH 4</tspan></text><text class="o" transform="translate(1592.19 907.4)">R. PSOC</text><text class="o" transform="translate(2082.35 777.52)">GU<tspan class="p" x="84.29" y="0">D</tspan><tspan class="q" x="128.36" y="0">ANG</tspan></text><text class="o" transform="translate(2520.48 777.52)">GU<tspan class="p" x="84.29" y="0">D</tspan><tspan class="q" x="128.36" y="0">ANG</tspan></text><text class="o" transform="translate(2878.37 777.52)"><tspan class="r">K</tspan><tspan class="q" x="37.75" y="0">AMAR GE</tspan><tspan class="s" x="302.45" y="0">L</tspan><tspan x="335.06" y="0">AP</tspan></text><text class="o" transform="translate(3398.97 789.77)">R.<tspan x="-75.65" y="64.8">DOSEN</tspan></text><text class="o" transform="translate(3391.01 1306.54)">R. <tspan x="-68.2" y="64.8">DOSEN</tspan></text><text class="m" transform="translate(4676.79 1033.35)">R. <tspan class="n" x="87.57" y="0">K</tspan><tspan x="137.9" y="0">ULIAH 7</tspan></text><text class="m" transform="translate(3387.51 202.25)">R. SEMINAR</text><text class="m" transform="translate(2739.02 202.25)">R. <tspan class="n" x="87.57" y="0">K</tspan><tspan x="137.9" y="0">ULIAH 6</tspan></text><text class="m" transform="translate(1947.74 202.25)"><tspan class="t">L</tspan><tspan class="u" x="42.28" y="0">A</tspan><tspan class="t" x="94.71" y="0">B</tspan><tspan x="148.33" y="0">. </tspan><tspan class="v" x="184.73" y="0">K</tspan><tspan x="234" y="0">OM</tspan><tspan class="n" x="359.79" y="0">P</tspan><tspan class="w" x="409.91" y="0">U</tspan><tspan class="x" x="464.23" y="0">T</tspan><tspan x="503.92" y="0">ASI</tspan></text><text class="m" transform="translate(1601.68 221.76)">R. MRKI</text><text class="o" transform="translate(1602.29 1423.65)"><tspan class="y">D</tspan><tspan x="44.06" y="0">A</tspan><tspan class="y" x="84.51" y="0">P</tspan><tspan x="123.17" y="0">UR</tspan></text><text class="m" transform="translate(2121.97 1206.47)"><tspan class="t">L</tspan><tspan class="u" x="42.28" y="0">A</tspan><tspan class="t" x="94.71" y="0">B</tspan><tspan x="148.33" y="0">. SI</tspan><tspan class="n" x="251.08" y="0">S</tspan><tspan class="z" x="294.41" y="0">TEM SENSOR </tspan><tspan class="n" x="790.71" y="0">D</tspan><tspan x="847.83" y="0">AN</tspan><tspan x="210" y="84">TELE</tspan><tspan class="aa" x="387.87" y="84">K</tspan><tspan class="z" x="437.14" y="84">ONTROL</tspan></text><text class="m" transform="translate(1184.6 290.74)"><tspan class="w">L</tspan><tspan x="41.02" y="0">OB</tspan><tspan class="ab" x="153.23" y="0">B</tspan><tspan x="205.45" y="0">Y</tspan></text><path class="ac" d="M3527.9,1756.83c0,6.48-5.08,10.26-14.8,10.26h-18.79v-37.8H3512c9.07,0,13.93,3.83,13.93,9.83a9,9,0,0,1-4.86,8.31A9.32,9.32,0,0,1,3527.9,1756.83Zm-26.57-22v10.42h9.93c4.86,0,7.62-1.73,7.62-5.19s-2.76-5.23-7.62-5.23Zm19.49,21.33c0-3.78-2.86-5.46-8.15-5.46h-11.34v10.91h11.34C3518,1761.58,3520.82,1759.91,3520.82,1756.13Z" transform="translate(-150.55 -683.09)"/><path class="ac" d="M3559.92,1758.34H3541l-3.73,8.75h-7.24l17-37.8H3554l17.06,37.8h-7.34Zm-2.33-5.51-7.12-16.52-7.08,16.52Z" transform="translate(-150.55 -683.09)"/><path class="ac" d="M3572.66,1763.09l2.43-5.45a20.93,20.93,0,0,0,12.47,4.16c5.89,0,8.37-2.11,8.37-4.92,0-8.15-22.46-2.81-22.46-16.85,0-6.1,4.86-11.28,15.23-11.28a23.9,23.9,0,0,1,12.58,3.35l-2.21,5.45a21,21,0,0,0-10.43-3c-5.83,0-8.2,2.27-8.2,5.13,0,8,22.41,2.81,22.41,16.69,0,6-4.92,11.23-15.29,11.23C3581.68,1767.63,3575.79,1765.79,3572.66,1763.09Z" transform="translate(-150.55 -683.09)"/><path class="ac" d="M3638.16,1761.2v5.89h-28.35v-37.8h27.6v5.88h-20.58V1745h18.25v5.78h-18.25v10.42Z" transform="translate(-150.55 -683.09)"/><path class="ac" d="M3643.88,1749.27h14.86v5.61h-14.86Z" transform="translate(-150.55 -683.09)"/><path class="ac" d="M3493,1813c0-11.29,8.64-19.44,20.25-19.44,6.16,0,11.45,2.21,15,6.32l-4.54,4.26a13.26,13.26,0,0,0-10.1-4.43c-7.83,0-13.5,5.51-13.5,13.29s5.67,13.28,13.5,13.28a13.14,13.14,0,0,0,10.1-4.48l4.54,4.32c-3.51,4.1-8.8,6.32-15,6.32C3501.65,1832.43,3493,1824.27,3493,1813Z" transform="translate(-150.55 -683.09)"/><path class="ac" d="M3558.68,1823.14h-18.9l-3.73,8.75h-7.24l17-37.8h6.92l17.06,37.8h-7.34Zm-2.33-5.51-7.12-16.52-7.08,16.52Z" transform="translate(-150.55 -683.09)"/><path class="ac" d="M3609.33,1831.89l-.06-25.06-12.42,20.74h-3.13l-12.42-20.41v24.73h-6.7v-37.8h5.78l15,25.05,14.75-25.05h5.78l0,37.8Z" transform="translate(-150.55 -683.09)"/><path class="ac" d="M3657.82,1807.53c0,8.32-6.16,13.45-16.09,13.45h-8.54v10.91h-7v-37.8h15.56C3651.66,1794.09,3657.82,1799.16,3657.82,1807.53Zm-7.08,0c0-4.75-3.18-7.5-9.34-7.5h-8.21v15h8.21C3647.56,1815,3650.74,1812.29,3650.74,1807.53Z" transform="translate(-150.55 -683.09)"/><text class="ad" transform="translate(3843 995.12)">R. DOSEN</text><text class="ad" transform="translate(4474.63 152)">R. DOSEN</text><text class="ae" transform="translate(1272.06 1289.91)">T<tspan class="z" x="41.44" y="0">OILET</tspan></text><text class="af" transform="translate(1090.61 1232.69)"><tspan class="ag">T<tspan class="ah" x="27.23" y="0">OI-</tspan></tspan><tspan x="6.14" y="55.2">LET</tspan></text><text class="ai" transform="translate(14.66 1733.04)">GEDUNG DE<tspan class="aj" x="474.71" y="0">P</tspan><tspan x="525.54" y="0">A</tspan><tspan class="ak" x="582.23" y="0">R</tspan><tspan class="al" x="635.88" y="0">TEMEN TEKNIK NUKLIR </tspan><tspan class="am" x="1559.38" y="0">D</tspan><tspan x="1619.77" y="0">AN TEKNIK FISI</tspan><tspan class="an" x="2210.13" y="0">K</tspan><tspan x="2262.59" y="0">A</tspan><tspan class="ao" x="0" y="88.8">L</tspan><tspan x="45.14" y="88.8">AN</tspan><tspan class="ap" x="161.61" y="88.8">T</tspan><tspan x="204.76" y="88.8">AI 2</tspan></text></svg>