<svg xmlns="http://www.w3.org/2000/svg" viewBox="0 0 5244.81 2707.43"><defs><style>.a,.b{fill:none;stroke:#1ef9a5;stroke-miterlimit:10;stroke-width:6px;}.b{stroke-dasharray:12;}.am,.c{font-size:70px;}.am,.aq,.bd,.be,.c,.h,.j,.q{fill:#232323;}.am,.be,.c,.h,.j,.q{font-family:Montserrat-SemiBold, Montserrat;font-weight:600;}.d{letter-spacing:0em;}.e{letter-spacing:0em;}.f{letter-spacing:-0.04em;}.g{letter-spacing:-0.03em;}.h{font-size:54px;}.i{letter-spacing:0.02em;}.j{font-size:46px;}.k{letter-spacing:-0.04em;}.l{letter-spacing:0em;}.m{letter-spacing:0em;}.n{letter-spacing:-0.02em;}.o{letter-spacing:-0.01em;}.p{letter-spacing:0em;}.q{font-size:40px;}.r{letter-spacing:-0.03em;}.s{letter-spacing:0em;}.t{letter-spacing:-0.01em;}.u{letter-spacing:-0.01em;}.v{letter-spacing:-0.01em;}.w{letter-spacing:-0.04em;}.x{letter-spacing:0em;}.y{letter-spacing:-0.04em;}.z{letter-spacing:0em;}.aa{letter-spacing:-0.01em;}.ab{letter-spacing:-0.01em;}.ac{letter-spacing:-0.01em;}.ad{letter-spacing:0em;}.ae{letter-spacing:-0.04em;}.af{letter-spacing:0em;}.ag{letter-spacing:-0.02em;}.ah{letter-spacing:-0.03em;}.ai{letter-spacing:0em;}.aj{letter-spacing:-0.03em;}.ak{letter-spacing:-0.04em;}.al,.am{letter-spacing:-0.01em;}.an{letter-spacing:0em;}.ao{letter-spacing:-0.01em;}.ap{letter-spacing:0em;}.aq{font-size:74px;font-family:Montserrat-Bold, Montserrat;font-weight:700;}.ar{letter-spacing:-0.04em;}.as{letter-spacing:-0.01em;}.at{letter-spacing:0em;}.au{letter-spacing:-0.01em;}.av{letter-spacing:-0.03em;}.aw{letter-spacing:0.01em;}.ax{letter-spacing:-0.03em;}.ay{letter-spacing:-0.01em;}.az{letter-spacing:-0.01em;}.ba{letter-spacing:0em;}.bb{letter-spacing:0.01em;}.bc{letter-spacing:-0.01em;}.be{font-size:68px;}.bf{letter-spacing:-0.01em;}.bg{letter-spacing:0.02em;}.bh{letter-spacing:-0.02em;}.bi{letter-spacing:-0.01em;}.bj{letter-spacing:-0.01em;}</style></defs><title>Denah Lantai 1</title><polygon class="a" points="3 3 3 1550.57 1045.04 1550.57 1045.04 1591.55 1571.77 1591.55 1571.77 1550.51 3681.47 1550.51 3681.47 2704.11 4192.62 2704.11 4192.62 1550.49 4716.53 1550.49 4716.53 1563.57 5241.81 1563.57 5241.81 3 3936.79 3 3936.79 91.68 3679.43 91.68 3679.43 3 1571.54 3 1571.88 98.32 1051.51 98.32 1051.17 3 3 3"/><rect class="a" x="3" y="3.32" width="416.26" height="337.36"/><rect class="a" x="419.26" y="3.32" width="277.02" height="337.36"/><rect class="a" x="696.28" y="3.32" width="354.72" height="337.36"/><rect class="a" x="1571.77" y="3.32" width="526.21" height="337.36"/><rect class="a" x="2097.98" y="3.32" width="261.45" height="337.36"/><line class="b" x1="2622.4" y1="340.68" x2="2622.4" y2="3.32"/><polyline class="a" points="2622.4 3.32 2358.96 3.32 2358.96 340.68 2622.4 340.68"/><polyline class="a" points="2622.4 340.68 2885.85 340.68 2885.85 3.32 2622.4 3.32"/><rect class="a" x="2885.85" y="3.32" width="263.45" height="337.36"/><rect class="a" x="3149.3" y="3.32" width="263.45" height="337.36"/><rect class="a" x="3413.17" y="3.32" width="266.17" height="337.36"/><rect class="a" x="4461.98" y="3.32" width="262.6" height="249.02"/><rect class="a" x="4199.57" y="514.3" width="262.6" height="263.15"/><rect class="a" x="4199.57" y="777.45" width="262.6" height="263.43"/><polygon class="a" points="4199.77 341.19 4461.98 341.7 4461.98 4.34 4199.77 3.83 4199.77 341.19"/><rect class="a" x="4724.57" y="3.32" width="264.13" height="249.02"/><rect class="a" x="4988.7" y="3.32" width="253.11" height="249.02"/><rect class="a" x="4921.47" y="1040.87" width="320.34" height="261.51"/><rect class="a" x="4921.47" y="1302.38" width="320.34" height="261.51"/><line class="a" x1="4199.57" y1="1040.87" x2="4199.57" y2="1550.81"/><line class="a" x1="4351.17" y1="341.49" x2="4351.17" y2="514.3"/><polygon class="a" points="3681.47 2324 3849.47 2324 3849.47 2415.15 3936.79 2415.15 3936.79 2704.43 3681.47 2704.43 3681.47 2324"/><polygon class="a" points="4192.11 2324 4024.11 2324 4024.11 2415.15 3936.79 2415.15 3936.79 2704.43 4192.11 2704.43 4192.11 2324"/><rect class="a" x="3681.47" y="1550.83" width="357.28" height="218.62"/><rect class="a" x="3681.47" y="1769.45" width="357.28" height="218.62"/><rect class="a" x="3681.47" y="1988.06" width="357.28" height="197.55"/><rect class="a" x="3148.04" y="514.47" width="787.66" height="1036.34"/><rect class="a" x="2783.26" y="514.47" width="366.04" height="214.3"/><rect class="a" x="2783.26" y="728.77" width="366.04" height="255.32"/><rect class="a" x="2783.25" y="1239.4" width="366.04" height="214.3"/><rect class="a" x="2783.25" y="984.09" width="366.04" height="255.32"/><polygon class="a" points="2622.4 1550.81 2097.98 1550.81 2097.98 514.47 2622.4 514.47 2622.4 609.28 2622.4 1550.81"/><line class="a" x1="2783.26" y1="609.28" x2="2622.4" y2="609.28"/><rect class="a" x="1571.77" y="514.47" width="526.21" height="1036.34"/><line class="a" x1="1222.74" y1="1591.87" x2="1222.74" y2="1110.72"/><polyline class="a" points="1222.74 1110.72 1571.77 1110.72 1571.77 1591.87 1222.74 1591.87"/><polyline class="a" points="1045.04 1591.87 1045.04 1110.72 1222.74 1110.72"/><rect class="a" x="3" y="514.47" width="511.49" height="1036.34"/><rect class="b" x="514.49" y="514.47" width="530.55" height="1036.34"/><rect class="b" x="514.49" y="710.38" width="270.13" height="195.91"/><rect class="b" x="514.49" y="906.3" width="270.13" height="195.91"/><rect class="b" x="514.49" y="1102.21" width="270.13" height="195.91"/><rect class="b" x="514.49" y="514.47" width="270.13" height="195.91"/><rect class="b" x="784.62" y="1298.13" width="260.43" height="252.68"/><rect class="a" x="4085.38" y="136.81" width="261.38" height="337.87" transform="translate(8283.55 478.51) rotate(180)"/><rect class="a" x="3936.79" y="97.57" width="126.11" height="216.31"/><line class="a" x1="4062.9" y1="115.6" x2="3936.79" y2="115.6"/><line class="a" x1="4062.9" y1="133.62" x2="3936.79" y2="133.62"/><line class="a" x1="4062.9" y1="151.65" x2="3936.79" y2="151.65"/><line class="a" x1="4062.9" y1="169.67" x2="3936.79" y2="169.67"/><line class="a" x1="4062.9" y1="187.7" x2="3936.79" y2="187.7"/><line class="a" x1="4062.9" y1="205.73" x2="3936.79" y2="205.73"/><line class="a" x1="4062.9" y1="223.75" x2="3936.79" y2="223.75"/><line class="a" x1="4062.9" y1="241.78" x2="3936.79" y2="241.78"/><line class="a" x1="4062.9" y1="259.8" x2="3936.79" y2="259.8"/><line class="a" x1="4062.9" y1="277.83" x2="3936.79" y2="277.83"/><line class="a" x1="4062.9" y1="295.85" x2="3936.79" y2="295.85"/><line class="a" x1="3999.84" y1="313.88" x2="3999.84" y2="97.57"/><line class="a" x1="4198.17" y1="115.6" x2="4072.06" y2="115.6"/><polygon class="a" points="4198.17 133.62 4198.17 97.57 4072.05 97.57 4072.05 223.75 4198.17 133.62"/><line class="a" x1="4072.06" y1="133.62" x2="4198.17" y2="133.62"/><line class="a" x1="4172.95" y1="151.65" x2="4072.06" y2="151.65"/><line class="a" x1="4147.72" y1="169.67" x2="4072.06" y2="169.67"/><line class="a" x1="4122.5" y1="187.7" x2="4072.06" y2="187.7"/><line class="a" x1="4097.28" y1="205.73" x2="4072.06" y2="205.73"/><line class="a" x1="4135.11" y1="178.69" x2="4135.11" y2="97.57"/><path class="a" d="M4287.15,309.2" transform="translate(-148.6 -132.98)"/><rect class="a" x="1175.69" y="694.77" width="269.44" height="347.79"/><rect class="a" x="1315.13" y="723.4" width="130" height="222.66"/><line class="a" x1="1315.13" y1="927.51" x2="1445.13" y2="927.51"/><line class="a" x1="1315.13" y1="908.95" x2="1445.13" y2="908.95"/><line class="a" x1="1315.13" y1="890.4" x2="1445.13" y2="890.4"/><line class="a" x1="1315.13" y1="871.84" x2="1445.13" y2="871.84"/><line class="a" x1="1315.13" y1="853.29" x2="1445.13" y2="853.29"/><line class="a" x1="1315.13" y1="834.73" x2="1445.13" y2="834.73"/><line class="a" x1="1315.13" y1="816.18" x2="1445.13" y2="816.18"/><line class="a" x1="1315.13" y1="797.62" x2="1445.13" y2="797.62"/><line class="a" x1="1315.13" y1="779.07" x2="1445.13" y2="779.07"/><line class="a" x1="1315.13" y1="760.51" x2="1445.13" y2="760.51"/><line class="a" x1="1315.13" y1="741.96" x2="1445.13" y2="741.96"/><line class="a" x1="1380.13" y1="723.4" x2="1380.13" y2="946.06"/><line class="a" x1="1175.69" y1="927.51" x2="1305.69" y2="927.51"/><polygon class="a" points="1175.69 908.95 1175.69 946.06 1305.69 946.06 1305.69 816.18 1175.69 908.95"/><line class="a" x1="1305.69" y1="908.95" x2="1175.69" y2="908.95"/><line class="a" x1="1201.69" y1="890.4" x2="1305.69" y2="890.4"/><line class="a" x1="1227.69" y1="871.84" x2="1305.69" y2="871.84"/><line class="a" x1="1253.69" y1="853.29" x2="1305.69" y2="853.29"/><line class="a" x1="1279.69" y1="834.73" x2="1305.69" y2="834.73"/><line class="a" x1="1240.69" y1="862.56" x2="1240.69" y2="946.06"/><path class="a" d="M1385.73,998.08" transform="translate(-148.6 -132.98)"/><rect class="a" x="514.49" y="514.47" width="530.55" height="1036.34"/><text class="c" transform="translate(4447.9 478.48)"><tspan class="d">L</tspan><tspan class="e" x="42.28" y="0">A</tspan><tspan class="d" x="94.71" y="0">B</tspan><tspan x="148.33" y="0">. KIMIA TERA</tspan><tspan class="f" x="611.65" y="0">P</tspan><tspan x="659.32" y="0">AN</tspan></text><text class="c" transform="translate(119.53 88.74)">KE<tspan class="g" x="97.93" y="0">P</tspan><tspan x="146.79" y="0">. </tspan><tspan x="-84.24" y="84">JURUSAN</tspan></text><text class="h" transform="translate(738.45 69.98)">ADMINI<tspan class="i" x="214.81" y="0">S</tspan><tspan x="249.58" y="0">-</tspan><tspan x="53.38" y="64.8">TRASI</tspan></text><text class="c" transform="translate(2446.43 151.74)">R. DOSEN</text><text class="j" transform="translate(2901.93 151.74)">R. DOSEN</text><text class="j" transform="translate(3165.38 151.74)">R. DOSEN</text><text class="j" transform="translate(3430.61 151.74)">R. DOSEN</text><text class="j" transform="translate(4477.63 97.57)">R. DOSEN</text><text class="j" transform="translate(4731.68 97.57)">R. KE<tspan class="k" x="121.9" y="0">P</tspan><tspan x="153.22" y="0">A</tspan><tspan class="l" x="187.68" y="0">L</tspan><tspan x="215.46" y="0">A</tspan><tspan class="m" x="76.34" y="55.2">L</tspan><tspan x="104.12" y="55.2">AB</tspan></text><text class="j" transform="translate(4206.78 591.84)">R. KE<tspan class="k" x="121.9" y="0">P</tspan><tspan x="153.22" y="0">A</tspan><tspan class="l" x="187.68" y="0">L</tspan><tspan x="215.46" y="0">A</tspan><tspan class="m" x="76.34" y="55.2">L</tspan><tspan x="104.12" y="55.2">AB</tspan></text><text class="j" transform="translate(4309.31 838.48)">R.<tspan class="n" x="-83.35" y="55.2">K</tspan><tspan x="-50.97" y="55.2">OSONG</tspan></text><text class="j" transform="translate(4973.36 1148.21)">GU<tspan class="o" x="71.8" y="0">D</tspan><tspan class="p" x="109.34" y="0">ANG</tspan></text><text class="j" transform="translate(4973.36 1409.72)">GU<tspan class="o" x="71.8" y="0">D</tspan><tspan class="p" x="109.34" y="0">ANG</tspan></text><text class="q" transform="translate(5090.24 97.57)">R. <tspan class="r" x="-94.9" y="48">K</tspan><tspan class="s" x="-66.74" y="48">OM</tspan><tspan class="t" x="5.14" y="48">P</tspan><tspan class="u" x="33.78" y="48">U</tspan><tspan x="64.82" y="48">TER</tspan></text><text class="j" transform="translate(4302.1 92)">R. <tspan class="v" x="-92.35" y="55.2">C</tspan><tspan x="-59.59" y="55.2">OOLB</tspan><tspan class="n" x="80.43" y="55.2">O</tspan><tspan x="118.01" y="55.2">X</tspan></text><text class="h" transform="translate(1620.31 151.74)">R. MAHASIS<tspan class="w" x="328.91" y="0">W</tspan><tspan class="x" x="388.69" y="0">A</tspan></text><text class="j" transform="translate(3735.15 1605.08)">R. KE<tspan class="y" x="121.9" y="0">P</tspan><tspan x="153.22" y="0">A</tspan><tspan class="l" x="187.68" y="0">L</tspan><tspan class="z" x="215.46" y="0">A</tspan><tspan class="l" x="76.34" y="55.2">L</tspan><tspan x="104.12" y="55.2">AB</tspan></text><text class="j" transform="translate(3744.46 1835.91)">R. DOSEN</text><text class="j" transform="translate(3744.46 2046.3)">R. DOSEN</text><text class="j" transform="translate(3717.5 2486.3)"><tspan class="aa">S</tspan><tspan class="ab" x="28.47" y="0">T</tspan><tspan x="55.57" y="0">UDIO</tspan><tspan x="-12.47" y="55.2">A</tspan><tspan class="o" x="21.99" y="55.2">K</tspan><tspan x="55.06" y="55.2">U</tspan><tspan class="aa" x="91.35" y="55.2">S</tspan><tspan x="119.83" y="55.2">TIK</tspan></text><text class="j" transform="translate(3956.16 2541.53)">GU<tspan class="aa" x="71.8" y="0">D</tspan><tspan class="z" x="109.34" y="0">ANG</tspan></text><text class="c" transform="translate(3253.32 879.84)"><tspan class="d">L</tspan><tspan x="42.28" y="0">A</tspan><tspan class="d" x="94.71" y="0">B</tspan><tspan x="148.33" y="0">. ANALISIS</tspan><tspan x="-46.97" y="84">RADI</tspan><tspan class="ac" x="136.78" y="84">O</tspan><tspan class="ad" x="195.02" y="84">A</tspan><tspan class="ae" x="247.45" y="84">K</tspan><tspan class="ad" x="295.33" y="84">T</tspan><tspan class="af" x="337.46" y="84">I</tspan><tspan class="ag" x="359.44" y="84">V</tspan><tspan x="409.42" y="84">I</tspan><tspan class="ah" x="431.75" y="84">T</tspan><tspan x="471.44" y="84">AS</tspan></text><text class="c" transform="translate(1752.17 838.48)"><tspan class="d">L</tspan><tspan x="42.28" y="0">A</tspan><tspan class="ai" x="94.71" y="0">B</tspan><tspan x="148.33" y="0">.</tspan><tspan x="-56.32" y="84">ENERGI</tspan><tspan x="-172.48" y="168">TERBARU</tspan><tspan class="aj" x="179.83" y="168">K</tspan><tspan x="228.76" y="168">AN</tspan></text><text class="j" transform="translate(2790.86 561.28)">ADMINI<tspan class="o" x="182.99" y="0">S</tspan><tspan x="211.46" y="0">TRASI</tspan><tspan x="73.83" y="55.2">SARANA</tspan><tspan class="aa" x="23.32" y="110.4">P</tspan><tspan x="56.26" y="110.4">RASARANA</tspan></text><text class="j" transform="translate(2857.99 833.96)">GU<tspan class="aa" x="71.8" y="0">D</tspan><tspan class="z" x="109.34" y="0">ANG</tspan></text><text class="j" transform="translate(2854.99 1087.23)">GU<tspan class="aa" x="71.8" y="0">D</tspan><tspan class="z" x="109.34" y="0">ANG</tspan></text><text class="j" transform="translate(2854.99 1340.51)">GU<tspan class="aa" x="71.8" y="0">D</tspan><tspan class="z" x="109.34" y="0">ANG</tspan><tspan x="-14.51" y="55.2">M</tspan><tspan class="ak" x="29.42" y="55.2">A</tspan><tspan x="62.26" y="55.2">TERIAL</tspan></text><text class="c" transform="translate(2147.05 856.43)">R. <tspan class="al" x="87.57" y="0">K</tspan><tspan x="137.9" y="0">ULIAH 1</tspan></text><text class="am" transform="translate(1270.42 1257.39)">T<tspan class="an" x="41.44" y="0">OILET</tspan></text><text class="j" transform="translate(1084.72 1200.17)"><tspan class="ao">T<tspan class="ap" x="27.23" y="0">OI-</tspan></tspan><tspan x="6.14" y="55.2">LET</tspan></text><text class="c" transform="translate(48.64 1014.07)">R. SI<tspan class="al" x="153.93" y="0">D</tspan><tspan class="e" x="211.05" y="0">ANG 1</tspan></text><text class="aq" transform="translate(16.62 2283.15)">GEDUNG DE<tspan class="ar" x="474.71" y="0">P</tspan><tspan x="525.54" y="0">A</tspan><tspan class="as" x="582.23" y="0">R</tspan><tspan class="at" x="635.88" y="0">TEMEN TEKNIK NUKLIR </tspan><tspan class="au" x="1559.38" y="0">D</tspan><tspan x="1619.77" y="0">AN TEKNIK FISI</tspan><tspan class="av" x="2210.13" y="0">K</tspan><tspan x="2262.59" y="0">A</tspan><tspan class="aw" x="0" y="88.8">L</tspan><tspan x="45.14" y="88.8">AN</tspan><tspan class="ax" x="161.61" y="88.8">T</tspan><tspan x="204.76" y="88.8">AI 1</tspan><tspan class="ay"><tspan x="0" y="177.6">L</tspan><tspan class="az" x="44.03" y="177.6">U</tspan><tspan class="at" x="101.23" y="177.6">AS= 16</tspan><tspan class="ba" x="346.54" y="177.6">5</tspan><tspan class="bb" x="390.2" y="177.6">2</tspan><tspan class="bc" x="434.6" y="177.6">.</tspan><tspan class="at" x="453.02" y="177.6">04 m2</tspan></tspan></text><path class="bd" d="M642.21,193.14l2.43-5.46a20.93,20.93,0,0,0,12.47,4.16c5.89,0,8.37-2.11,8.37-4.91,0-8.16-22.46-2.81-22.46-16.85,0-6.11,4.86-11.29,15.23-11.29a23.92,23.92,0,0,1,12.58,3.35l-2.22,5.45a21,21,0,0,0-10.42-3c-5.83,0-8.21,2.27-8.21,5.13,0,8.05,22.41,2.81,22.41,16.69,0,6.05-4.91,11.23-15.28,11.23C651.23,197.67,645.34,195.84,642.21,193.14Z" transform="translate(-148.6 -132.98)"/><path class="bd" d="M707.71,191.25v5.88H679.36v-37.8H707v5.89H686.38V175h18.25v5.78H686.38v10.43Z" transform="translate(-148.6 -132.98)"/><path class="bd" d="M728.55,181.31l-6,6.16v9.66h-7v-37.8h7v19.39l18.68-19.39h7.89l-15.88,16.9,16.85,20.9h-8.21Z" transform="translate(-148.6 -132.98)"/><path class="bd" d="M752.8,179.31h14.85v5.62H752.8Z" transform="translate(-148.6 -132.98)"/><path class="bd" d="M616.59,261.93l-7.73-11.07a11.72,11.72,0,0,1-1.45.06h-8.54v11h-7v-37.8h15.56c9.93,0,16.09,5.08,16.09,13.45a12.09,12.09,0,0,1-8,11.93l8.7,12.42Zm-9.51-31.86h-8.21v15.07h8.21c6.16,0,9.34-2.81,9.34-7.56S613.24,230.07,607.08,230.07Z" transform="translate(-148.6 -132.98)"/><path class="bd" d="M659.68,256v5.89H631.33v-37.8h27.59V230H638.35v9.82H656.6v5.78H638.35V256Z" transform="translate(-148.6 -132.98)"/><path class="bd" d="M675.17,230.07H662.65v-5.94h32.07v5.94H682.19v31.86h-7Z" transform="translate(-148.6 -132.98)"/><path class="bd" d="M722.64,253.18h-18.9L700,261.93h-7.23l17-37.8h6.91l17.07,37.8h-7.35Zm-2.32-5.51-7.13-16.52-7.07,16.52Z" transform="translate(-148.6 -132.98)"/><path class="bd" d="M763.3,261.93l-7.72-11.07a11.88,11.88,0,0,1-1.46.06h-8.53v11h-7v-37.8h15.55c9.94,0,16.09,5.08,16.09,13.45a12.08,12.08,0,0,1-8,11.93l8.69,12.42Zm-9.5-31.86h-8.21v15.07h8.21c6.15,0,9.34-2.81,9.34-7.56S760,230.07,753.8,230.07Z" transform="translate(-148.6 -132.98)"/><path class="bd" d="M778,224.13h7v37.8h-7Z" transform="translate(-148.6 -132.98)"/><path class="bd" d="M792.08,257.94l2.43-5.46A21,21,0,0,0,807,256.64c5.88,0,8.37-2.11,8.37-4.91,0-8.16-22.47-2.81-22.47-16.85,0-6.11,4.86-11.29,15.23-11.29a23.87,23.87,0,0,1,12.58,3.35l-2.21,5.45a21,21,0,0,0-10.42-3c-5.84,0-8.21,2.27-8.21,5.13,0,8,22.41,2.81,22.41,16.69,0,6.05-4.91,11.23-15.28,11.23C801.1,262.47,795.21,260.64,792.08,257.94Z" transform="translate(-148.6 -132.98)"/><text class="be" transform="translate(746.62 930.27)">R. <tspan class="bf" x="-214.47" y="81.6">P</tspan><tspan x="-165.78" y="81.6">ENG</tspan><tspan class="bg" x="-12.65" y="81.6">A</tspan><tspan class="bh" x="39.3" y="81.6">J</tspan><tspan x="74.12" y="81.6">ARAN</tspan></text><text class="c" transform="translate(1189.27 410.13)"><tspan class="bi">L</tspan><tspan x="41.02" y="0">OB</tspan><tspan class="bj" x="153.23" y="0">B</tspan><tspan x="205.45" y="0">Y</tspan></text><path class="bd" d="M2300.08,215.15l-6.58-9.43c-.41,0-.83,0-1.24,0H2285v9.39h-6V182.94h13.25c8.47,0,13.71,4.33,13.71,11.46a10.29,10.29,0,0,1-6.85,10.17l7.4,10.58ZM2292,188h-7v12.83h7c5.25,0,8-2.39,8-6.44S2297.23,188,2292,188Z" transform="translate(-148.6 -132.98)"/><path class="bd" d="M2310.15,211.65a3.78,3.78,0,1,1,7.55,0,3.78,3.78,0,1,1-7.55,0Z" transform="translate(-148.6 -132.98)"/><path class="bd" d="M2363.51,194.4c0,7.08-5.24,11.46-13.7,11.46h-7.27v9.29h-6V182.94h13.25C2358.27,182.94,2363.51,187.27,2363.51,194.4Zm-6,0c0-4.05-2.72-6.39-8-6.39h-7v12.78h7C2354.77,200.79,2357.49,198.45,2357.49,194.4Z" transform="translate(-148.6 -132.98)"/><path class="bd" d="M2388.77,207.7h-16.1l-3.18,7.45h-6.16l14.49-32.21h5.89l14.54,32.21H2392Zm-2-4.7-6.07-14.07-6,14.07Z" transform="translate(-148.6 -132.98)"/><path class="bd" d="M2431,182.94v32.21H2426l-17.76-21.81v21.81h-5.93V182.94h4.92L2425,204.75V182.94Z" transform="translate(-148.6 -132.98)"/><path class="bd" d="M2439.6,182.94h6v32.21h-6Z" transform="translate(-148.6 -132.98)"/><path class="bd" d="M2452.47,200h12.66v4.78h-12.66Z" transform="translate(-148.6 -132.98)"/><path class="bd" d="M2343.62,243.21h-10.68v-5.06h27.33v5.06H2349.6v27.14h-6Z" transform="translate(-148.6 -132.98)"/><path class="bd" d="M2364.78,238.15h6v32.2h-6Z" transform="translate(-148.6 -132.98)"/><path class="bd" d="M2400.34,262.9h-16.11l-3.17,7.45h-6.16l14.49-32.2h5.89l14.53,32.2h-6.25Zm-2-4.7-6.07-14.07-6,14.07Z" transform="translate(-148.6 -132.98)"/><path class="bd" d="M2305.44,318.1h-16.1l-3.18,7.45H2280l14.49-32.2h5.89l14.54,32.2h-6.26Zm-2-4.7-6.07-14.07-6,14.07Z" transform="translate(-148.6 -132.98)"/><path class="bd" d="M2319,293.35h14.08c10.44,0,17.57,6.44,17.57,16.1s-7.13,16.1-17.57,16.1H2319Zm13.8,27.14c7.18,0,11.82-4.37,11.82-11s-4.64-11-11.82-11H2325v22.08Z" transform="translate(-148.6 -132.98)"/><path class="bd" d="M2385.62,293.35v32.2h-6v-13.8H2363v13.8h-6v-32.2h6v13.29h16.66V293.35Z" transform="translate(-148.6 -132.98)"/><path class="bd" d="M2392,309.45c0-9.53,7.36-16.56,17.35-16.56s17.34,7,17.34,16.56S2419.29,326,2409.31,326,2392,319,2392,309.45Zm28.66,0a11.32,11.32,0,1,0-11.31,11.31A11,11,0,0,0,2420.62,309.45Z" transform="translate(-148.6 -132.98)"/><path class="bd" d="M2430.69,309.45c0-9.62,7.37-16.56,17.26-16.56,5.24,0,9.75,1.88,12.74,5.38l-3.86,3.63a11.33,11.33,0,0,0-8.61-3.77c-6.67,0-11.5,4.69-11.5,11.32s4.83,11.31,11.5,11.31a11.23,11.23,0,0,0,8.61-3.81l3.86,3.68c-3,3.49-7.5,5.38-12.79,5.38C2438.06,326,2430.69,319.06,2430.69,309.45Z" transform="translate(-148.6 -132.98)"/></svg>